<mxfile host="app.diagrams.net" modified="2023-11-03T21:30:32.158Z" agent="Mozilla/5.0 (Macintosh; Intel Mac OS X 10.15; rv:109.0) Gecko/20100101 Firefox/119.0" etag="5MOvIpCGPjA9dmZ6qi49" version="22.0.8" type="device">
  <diagram id="C5RBs43oDa-KdzZeNtuy" name="Page-1">
    <mxGraphModel dx="1026" dy="658" grid="1" gridSize="10" guides="1" tooltips="1" connect="1" arrows="1" fold="1" page="1" pageScale="1" pageWidth="827" pageHeight="1169" math="0" shadow="0">
      <root>
        <mxCell id="WIyWlLk6GJQsqaUBKTNV-0" />
        <mxCell id="WIyWlLk6GJQsqaUBKTNV-1" parent="WIyWlLk6GJQsqaUBKTNV-0" />
        <mxCell id="3Hy7unLANZZ2kYL0rYG1-11" style="edgeStyle=orthogonalEdgeStyle;rounded=0;orthogonalLoop=1;jettySize=auto;html=1;" edge="1" parent="WIyWlLk6GJQsqaUBKTNV-1" source="3Hy7unLANZZ2kYL0rYG1-0" target="3Hy7unLANZZ2kYL0rYG1-10">
          <mxGeometry relative="1" as="geometry" />
        </mxCell>
        <mxCell id="3Hy7unLANZZ2kYL0rYG1-0" value="&lt;div&gt;Smart Contract&lt;/div&gt;&lt;div&gt;(Solidity code)&lt;br&gt;&lt;/div&gt;" style="rounded=1;whiteSpace=wrap;html=1;" vertex="1" parent="WIyWlLk6GJQsqaUBKTNV-1">
          <mxGeometry x="30" y="30" width="120" height="60" as="geometry" />
        </mxCell>
        <mxCell id="3Hy7unLANZZ2kYL0rYG1-4" style="edgeStyle=orthogonalEdgeStyle;rounded=0;orthogonalLoop=1;jettySize=auto;html=1;" edge="1" parent="WIyWlLk6GJQsqaUBKTNV-1" source="3Hy7unLANZZ2kYL0rYG1-1" target="3Hy7unLANZZ2kYL0rYG1-3">
          <mxGeometry relative="1" as="geometry" />
        </mxCell>
        <mxCell id="3Hy7unLANZZ2kYL0rYG1-1" value="Context" style="rounded=1;whiteSpace=wrap;html=1;" vertex="1" parent="WIyWlLk6GJQsqaUBKTNV-1">
          <mxGeometry x="190" y="30" width="120" height="60" as="geometry" />
        </mxCell>
        <mxCell id="3Hy7unLANZZ2kYL0rYG1-6" style="edgeStyle=orthogonalEdgeStyle;rounded=0;orthogonalLoop=1;jettySize=auto;html=1;" edge="1" parent="WIyWlLk6GJQsqaUBKTNV-1" source="3Hy7unLANZZ2kYL0rYG1-3" target="3Hy7unLANZZ2kYL0rYG1-5">
          <mxGeometry relative="1" as="geometry" />
        </mxCell>
        <mxCell id="3Hy7unLANZZ2kYL0rYG1-7" value="yes" style="edgeLabel;html=1;align=center;verticalAlign=middle;resizable=0;points=[];" vertex="1" connectable="0" parent="3Hy7unLANZZ2kYL0rYG1-6">
          <mxGeometry y="-2" relative="1" as="geometry">
            <mxPoint y="-12" as="offset" />
          </mxGeometry>
        </mxCell>
        <mxCell id="3Hy7unLANZZ2kYL0rYG1-22" value=".xml file" style="edgeLabel;html=1;align=center;verticalAlign=middle;resizable=0;points=[];" vertex="1" connectable="0" parent="3Hy7unLANZZ2kYL0rYG1-6">
          <mxGeometry x="0.5714" y="1" relative="1" as="geometry">
            <mxPoint x="-15" y="11" as="offset" />
          </mxGeometry>
        </mxCell>
        <mxCell id="3Hy7unLANZZ2kYL0rYG1-13" style="edgeStyle=orthogonalEdgeStyle;rounded=0;orthogonalLoop=1;jettySize=auto;html=1;" edge="1" parent="WIyWlLk6GJQsqaUBKTNV-1" source="3Hy7unLANZZ2kYL0rYG1-3" target="3Hy7unLANZZ2kYL0rYG1-8">
          <mxGeometry relative="1" as="geometry" />
        </mxCell>
        <mxCell id="3Hy7unLANZZ2kYL0rYG1-16" value="no" style="edgeLabel;html=1;align=center;verticalAlign=middle;resizable=0;points=[];" vertex="1" connectable="0" parent="3Hy7unLANZZ2kYL0rYG1-13">
          <mxGeometry y="-1" relative="1" as="geometry">
            <mxPoint x="1" y="-20" as="offset" />
          </mxGeometry>
        </mxCell>
        <mxCell id="3Hy7unLANZZ2kYL0rYG1-23" value=".lna file" style="edgeLabel;html=1;align=center;verticalAlign=middle;resizable=0;points=[];" vertex="1" connectable="0" parent="3Hy7unLANZZ2kYL0rYG1-13">
          <mxGeometry x="0.125" y="5" relative="1" as="geometry">
            <mxPoint x="-5" as="offset" />
          </mxGeometry>
        </mxCell>
        <mxCell id="3Hy7unLANZZ2kYL0rYG1-3" value="DCR model?" style="strokeWidth=2;html=1;shape=mxgraph.flowchart.decision;whiteSpace=wrap;" vertex="1" parent="WIyWlLk6GJQsqaUBKTNV-1">
          <mxGeometry x="200" y="140" width="100" height="100" as="geometry" />
        </mxCell>
        <mxCell id="3Hy7unLANZZ2kYL0rYG1-15" style="edgeStyle=orthogonalEdgeStyle;rounded=0;orthogonalLoop=1;jettySize=auto;html=1;entryX=1;entryY=0.5;entryDx=0;entryDy=0;exitX=0.5;exitY=1;exitDx=0;exitDy=0;" edge="1" parent="WIyWlLk6GJQsqaUBKTNV-1" source="3Hy7unLANZZ2kYL0rYG1-5">
          <mxGeometry relative="1" as="geometry">
            <mxPoint x="430" y="210" as="sourcePoint" />
            <mxPoint x="310" y="340" as="targetPoint" />
            <Array as="points">
              <mxPoint x="430" y="340" />
            </Array>
          </mxGeometry>
        </mxCell>
        <mxCell id="3Hy7unLANZZ2kYL0rYG1-21" value=".lna file" style="edgeLabel;html=1;align=center;verticalAlign=middle;resizable=0;points=[];" vertex="1" connectable="0" parent="3Hy7unLANZZ2kYL0rYG1-15">
          <mxGeometry x="0.504" y="-1" relative="1" as="geometry">
            <mxPoint as="offset" />
          </mxGeometry>
        </mxCell>
        <mxCell id="3Hy7unLANZZ2kYL0rYG1-5" value="DCR2CPN" style="rounded=1;whiteSpace=wrap;html=1;" vertex="1" parent="WIyWlLk6GJQsqaUBKTNV-1">
          <mxGeometry x="370" y="160" width="120" height="60" as="geometry" />
        </mxCell>
        <mxCell id="3Hy7unLANZZ2kYL0rYG1-30" style="edgeStyle=orthogonalEdgeStyle;rounded=0;orthogonalLoop=1;jettySize=auto;html=1;entryX=0.367;entryY=-0.067;entryDx=0;entryDy=0;entryPerimeter=0;" edge="1" parent="WIyWlLk6GJQsqaUBKTNV-1" source="3Hy7unLANZZ2kYL0rYG1-8" target="3Hy7unLANZZ2kYL0rYG1-29">
          <mxGeometry relative="1" as="geometry">
            <Array as="points">
              <mxPoint x="234" y="400" />
              <mxPoint x="234" y="400" />
            </Array>
          </mxGeometry>
        </mxCell>
        <mxCell id="3Hy7unLANZZ2kYL0rYG1-31" value="&lt;div&gt;.lna file&lt;/div&gt;&lt;div&gt;(unfolded model)&lt;br&gt;&lt;/div&gt;" style="edgeLabel;html=1;align=center;verticalAlign=middle;resizable=0;points=[];" vertex="1" connectable="0" parent="3Hy7unLANZZ2kYL0rYG1-30">
          <mxGeometry x="0.1519" y="3" relative="1" as="geometry">
            <mxPoint x="-47" y="-15" as="offset" />
          </mxGeometry>
        </mxCell>
        <mxCell id="3Hy7unLANZZ2kYL0rYG1-32" style="edgeStyle=orthogonalEdgeStyle;rounded=0;orthogonalLoop=1;jettySize=auto;html=1;entryX=0.75;entryY=0;entryDx=0;entryDy=0;exitX=0.75;exitY=1;exitDx=0;exitDy=0;" edge="1" parent="WIyWlLk6GJQsqaUBKTNV-1" source="3Hy7unLANZZ2kYL0rYG1-8" target="3Hy7unLANZZ2kYL0rYG1-29">
          <mxGeometry relative="1" as="geometry" />
        </mxCell>
        <mxCell id="3Hy7unLANZZ2kYL0rYG1-33" value="&lt;div&gt;.lna file&lt;/div&gt;&lt;div&gt;(property file)&lt;br&gt;&lt;/div&gt;" style="edgeLabel;html=1;align=center;verticalAlign=middle;resizable=0;points=[];" vertex="1" connectable="0" parent="3Hy7unLANZZ2kYL0rYG1-32">
          <mxGeometry x="-0.2857" y="-1" relative="1" as="geometry">
            <mxPoint x="41" y="4" as="offset" />
          </mxGeometry>
        </mxCell>
        <mxCell id="3Hy7unLANZZ2kYL0rYG1-8" value="unfolding" style="rounded=1;whiteSpace=wrap;html=1;" vertex="1" parent="WIyWlLk6GJQsqaUBKTNV-1">
          <mxGeometry x="190" y="320" width="120" height="60" as="geometry" />
        </mxCell>
        <mxCell id="3Hy7unLANZZ2kYL0rYG1-14" style="edgeStyle=orthogonalEdgeStyle;rounded=0;orthogonalLoop=1;jettySize=auto;html=1;entryX=0;entryY=0.5;entryDx=0;entryDy=0;exitX=0.25;exitY=1;exitDx=0;exitDy=0;" edge="1" parent="WIyWlLk6GJQsqaUBKTNV-1" source="3Hy7unLANZZ2kYL0rYG1-10">
          <mxGeometry relative="1" as="geometry">
            <mxPoint x="60" y="230" as="sourcePoint" />
            <mxPoint x="190" y="360" as="targetPoint" />
            <Array as="points">
              <mxPoint x="60" y="360" />
            </Array>
          </mxGeometry>
        </mxCell>
        <mxCell id="3Hy7unLANZZ2kYL0rYG1-19" value=".lna file" style="edgeLabel;html=1;align=center;verticalAlign=middle;resizable=0;points=[];" vertex="1" connectable="0" parent="3Hy7unLANZZ2kYL0rYG1-14">
          <mxGeometry x="0.5704" y="-1" relative="1" as="geometry">
            <mxPoint as="offset" />
          </mxGeometry>
        </mxCell>
        <mxCell id="3Hy7unLANZZ2kYL0rYG1-17" style="edgeStyle=orthogonalEdgeStyle;rounded=0;orthogonalLoop=1;jettySize=auto;html=1;entryX=0;entryY=0.25;entryDx=0;entryDy=0;" edge="1" parent="WIyWlLk6GJQsqaUBKTNV-1" source="3Hy7unLANZZ2kYL0rYG1-10" target="3Hy7unLANZZ2kYL0rYG1-8">
          <mxGeometry relative="1" as="geometry">
            <Array as="points">
              <mxPoint x="100" y="335" />
            </Array>
          </mxGeometry>
        </mxCell>
        <mxCell id="3Hy7unLANZZ2kYL0rYG1-18" value="JSON file" style="edgeLabel;html=1;align=center;verticalAlign=middle;resizable=0;points=[];" vertex="1" connectable="0" parent="3Hy7unLANZZ2kYL0rYG1-17">
          <mxGeometry x="-0.4049" relative="1" as="geometry">
            <mxPoint x="40" y="49" as="offset" />
          </mxGeometry>
        </mxCell>
        <mxCell id="3Hy7unLANZZ2kYL0rYG1-10" value="Solidity2CPN" style="rounded=1;whiteSpace=wrap;html=1;" vertex="1" parent="WIyWlLk6GJQsqaUBKTNV-1">
          <mxGeometry x="30" y="160" width="120" height="60" as="geometry" />
        </mxCell>
        <mxCell id="3Hy7unLANZZ2kYL0rYG1-26" style="edgeStyle=orthogonalEdgeStyle;rounded=0;orthogonalLoop=1;jettySize=auto;html=1;" edge="1" parent="WIyWlLk6GJQsqaUBKTNV-1" source="3Hy7unLANZZ2kYL0rYG1-24" target="3Hy7unLANZZ2kYL0rYG1-25">
          <mxGeometry relative="1" as="geometry" />
        </mxCell>
        <mxCell id="3Hy7unLANZZ2kYL0rYG1-24" value="LTL Formula" style="rounded=1;whiteSpace=wrap;html=1;" vertex="1" parent="WIyWlLk6GJQsqaUBKTNV-1">
          <mxGeometry x="530" y="30" width="120" height="60" as="geometry" />
        </mxCell>
        <mxCell id="3Hy7unLANZZ2kYL0rYG1-27" style="edgeStyle=orthogonalEdgeStyle;rounded=0;orthogonalLoop=1;jettySize=auto;html=1;entryX=1;entryY=0.75;entryDx=0;entryDy=0;" edge="1" parent="WIyWlLk6GJQsqaUBKTNV-1" source="3Hy7unLANZZ2kYL0rYG1-25" target="3Hy7unLANZZ2kYL0rYG1-8">
          <mxGeometry relative="1" as="geometry">
            <Array as="points">
              <mxPoint x="590" y="365" />
            </Array>
          </mxGeometry>
        </mxCell>
        <mxCell id="3Hy7unLANZZ2kYL0rYG1-28" value=".lna file" style="edgeLabel;html=1;align=center;verticalAlign=middle;resizable=0;points=[];" vertex="1" connectable="0" parent="3Hy7unLANZZ2kYL0rYG1-27">
          <mxGeometry x="0.7176" relative="1" as="geometry">
            <mxPoint as="offset" />
          </mxGeometry>
        </mxCell>
        <mxCell id="3Hy7unLANZZ2kYL0rYG1-25" value="LTL2Prop" style="rounded=1;whiteSpace=wrap;html=1;" vertex="1" parent="WIyWlLk6GJQsqaUBKTNV-1">
          <mxGeometry x="530" y="160" width="120" height="60" as="geometry" />
        </mxCell>
        <mxCell id="3Hy7unLANZZ2kYL0rYG1-29" value="&lt;div&gt;model checking&lt;/div&gt;&lt;div&gt;(Helena)&lt;br&gt;&lt;/div&gt;" style="rounded=1;whiteSpace=wrap;html=1;" vertex="1" parent="WIyWlLk6GJQsqaUBKTNV-1">
          <mxGeometry x="190" y="480" width="120" height="60" as="geometry" />
        </mxCell>
      </root>
    </mxGraphModel>
  </diagram>
</mxfile>
